<svg xmlns="http://www.w3.org/2000/svg" version="1.1" xmlns:xlink="http://www.w3.org/1999/xlink" width="1000" height="1000"><style>
    #light-icon {
      display: inline;
    }
    #dark-icon {
      display: none;
    }

    @media (prefers-color-scheme: dark) {
      #light-icon {
        display: none;
      }
      #dark-icon {
        display: inline;
      }
    }
  </style><g id="light-icon"><svg xmlns="http://www.w3.org/2000/svg" version="1.1" xmlns:xlink="http://www.w3.org/1999/xlink" width="1000" height="1000"><g><g transform="matrix(41.666666666666664,0,0,41.666666666666664,0,0)"><svg xmlns="http://www.w3.org/2000/svg" version="1.1" xmlns:xlink="http://www.w3.org/1999/xlink" width="24" height="24"><svg xmlns="http://www.w3.org/2000/svg" width="24" height="24" viewBox="0 0 24 24" fill="none" stroke="currentColor" stroke-width="2" stroke-linecap="round" stroke-linejoin="round" class="lucide lucide-calculator-icon lucide-calculator"><rect width="16" height="20" x="4" y="2" rx="2"></rect><line x1="8" x2="16" y1="6" y2="6"></line><line x1="16" x2="16" y1="14" y2="18"></line><path d="M16 10h.01"></path><path d="M12 10h.01"></path><path d="M8 10h.01"></path><path d="M12 14h.01"></path><path d="M8 14h.01"></path><path d="M12 18h.01"></path><path d="M8 18h.01"></path></svg></svg></g></g></svg></g><g id="dark-icon"><svg xmlns="http://www.w3.org/2000/svg" version="1.1" xmlns:xlink="http://www.w3.org/1999/xlink" width="1000" height="1000"><g><g transform="matrix(41.666666666666664,0,0,41.666666666666664,0,0)"><svg xmlns="http://www.w3.org/2000/svg" version="1.1" xmlns:xlink="http://www.w3.org/1999/xlink" width="24" height="24"><svg xmlns="http://www.w3.org/2000/svg" width="24" height="24" viewBox="0 0 24 24" fill="none" stroke="#ffffff" stroke-width="2" stroke-linecap="round" stroke-linejoin="round" class="lucide lucide-calculator-icon lucide-calculator"><rect width="16" height="20" x="4" y="2" rx="2"></rect><line x1="8" x2="16" y1="6" y2="6"></line><line x1="16" x2="16" y1="14" y2="18"></line><path d="M16 10h.01"></path><path d="M12 10h.01"></path><path d="M8 10h.01"></path><path d="M12 14h.01"></path><path d="M8 14h.01"></path><path d="M12 18h.01"></path><path d="M8 18h.01"></path></svg></svg></g></g></svg></g></svg>